<svg width="163" height="30" viewBox="0 0 163 30" fill="none" xmlns="http://www.w3.org/2000/svg">
<path d="M14.7098 0C16.0878 0 17.3599 0.107063 18.5259 0.424013C19.692 0.63602 20.646 1.06003 21.494 1.59005C22.342 2.12007 22.9781 2.86209 23.4021 3.81718C23.8261 4.77015 24.0381 5.93725 24.0381 7.20929C24.0381 8.69227 23.7201 9.96537 22.9781 10.9194C22.342 11.8724 21.282 12.7204 20.01 13.3564C21.812 13.8864 23.1901 14.8394 24.0381 16.1125C24.8861 17.3845 25.4161 18.9746 25.4161 20.7767C25.4161 22.2596 25.0981 23.5327 24.5681 24.5928C24.0381 25.6528 23.1901 26.6068 22.236 27.2429C21.282 27.8799 20.116 28.41 18.8439 28.7269C17.5719 29.0438 16.2999 29.2569 15.0278 29.2569H0.823364V0H14.7098ZM13.8618 11.8724C15.0278 11.8724 15.9818 11.5544 16.7239 11.0243C17.4659 10.4943 17.7839 9.5403 17.7839 8.37426C17.7839 7.73824 17.6779 7.10222 17.4659 6.67821C17.2539 6.2542 16.9359 5.93619 16.5119 5.61818C16.0878 5.40617 15.6638 5.19416 15.1338 5.08816C14.6038 4.98216 14.0738 4.98216 13.4378 4.98216H7.28957V11.8724H13.8618ZM14.1798 24.3808C14.8158 24.3808 15.4518 24.2748 15.9818 24.1698C16.5119 24.0628 17.0419 23.8507 17.4659 23.5327C17.8899 23.2147 18.2079 22.8967 18.5259 22.3667C18.7379 21.8367 18.9499 21.1996 18.9499 20.4586C18.9499 18.9746 18.5259 17.9146 17.6779 17.1715C16.8299 16.5355 15.6638 16.2185 14.2858 16.2185H7.28957V24.3808H14.1798ZM34.6384 24.2748C35.4865 25.1228 36.7585 25.5468 38.4545 25.5468C39.6206 25.5468 40.6806 25.2288 41.5286 24.6988C42.3767 24.0617 42.9067 23.4267 43.1187 22.7897H48.3129C47.4648 25.3337 46.1928 27.1368 44.4967 28.3018C42.8007 29.3619 40.7866 29.9989 38.3485 29.9989C36.6525 29.9989 35.1684 29.6799 33.7904 29.1499C32.4124 28.6198 31.3523 27.8789 30.3983 26.8188C29.4443 25.8648 28.7022 24.6988 28.2782 23.3197C27.7482 21.9416 27.5362 20.4586 27.5362 18.7615C27.5362 17.1715 27.7482 15.6885 28.2782 14.3094C28.8082 12.9313 29.5503 11.7664 30.5043 10.7063C31.4583 9.75231 32.6244 8.90428 33.8964 8.37426C35.2744 7.84425 36.6525 7.52624 38.3485 7.52624C40.1506 7.52624 41.7407 7.84425 43.1187 8.58627C44.4967 9.32829 45.5568 10.1763 46.4048 11.4484C47.2528 12.6144 47.8888 13.9914 48.3129 15.4765C48.5249 16.9605 48.6309 18.4446 48.5249 20.1406H33.1544C33.1544 21.8367 33.7904 23.4267 34.6384 24.2748ZM41.3166 13.1444C40.5746 12.4024 39.4086 11.9784 38.0305 11.9784C37.0765 11.9784 36.3345 12.1893 35.6985 12.5084C35.0624 12.8264 34.6384 13.2494 34.2144 13.6744C33.7904 14.0995 33.5784 14.6285 33.4724 15.1585C33.3664 15.6885 33.2604 16.1114 33.2604 16.5365H42.8007C42.5887 14.9465 42.0587 13.8864 41.3166 13.1444ZM56.7931 0V11.0243H56.8991C57.6412 9.75231 58.5952 8.90428 59.7612 8.37426C60.9273 7.84425 61.9873 7.52624 63.1533 7.52624C64.7434 7.52624 66.0154 7.73824 66.9694 8.16226C67.9235 8.58627 68.7715 9.22229 69.3015 9.96431C69.8315 10.7063 70.2555 11.6604 70.4676 12.7204C70.6796 13.7804 70.7856 14.9475 70.7856 16.3245V29.3629H64.9554V17.3845C64.9554 15.5825 64.6374 14.3104 64.1074 13.4624C63.5773 12.6144 62.6233 12.1904 61.2453 12.1904C59.6552 12.1904 58.4892 12.7204 57.8532 13.5695C57.1111 14.5225 56.7931 16.1125 56.7931 18.2326V29.3629H50.9629V0H56.7931ZM75.0257 11.2364C75.6617 10.2823 76.4037 9.6463 77.3578 9.00922C78.3118 8.47921 79.3718 8.05625 80.5379 7.84319C81.7039 7.63118 82.8689 7.52518 84.036 7.52518C85.096 7.52518 86.156 7.63118 87.3231 7.73718C88.3832 7.84319 89.4432 8.16014 90.2902 8.58521C91.2442 9.00816 91.8802 9.64524 92.5173 10.3873C93.0463 11.1303 93.3643 12.1904 93.3643 13.4624V24.5928C93.3643 25.5468 93.4703 26.5008 93.5763 27.3499C93.6833 28.1979 93.9992 28.94 94.3183 29.3629H88.3821C88.169 29.1509 88.063 28.7269 87.9581 28.41C87.8521 28.0909 87.8521 27.6679 87.8521 27.3499C86.8981 28.3029 85.838 28.94 84.566 29.3629C83.294 29.7869 82.0219 29.8929 80.7499 29.8929C79.6898 29.8929 78.8418 29.7869 77.8878 29.47C77.0398 29.258 76.2977 28.8329 75.5557 28.3029C74.9197 27.7729 74.3897 27.1369 73.9657 26.2899C73.6477 25.4408 73.4356 24.5928 73.4356 23.4267C73.4356 22.2596 73.6477 21.1996 74.0717 20.4586C74.4957 19.7166 75.0257 19.0806 75.6617 18.5506C76.2977 18.1276 77.1458 17.7026 77.9938 17.4905C78.8418 17.2796 79.6898 17.0676 80.6439 16.9605L83.188 16.6425C84.036 16.5365 84.778 16.4305 85.414 16.3245C86.05 16.1125 86.5801 15.9005 87.0041 15.5825C87.4281 15.2645 87.5341 14.8405 87.5341 14.2044C87.5341 13.5684 87.4281 13.0384 87.2161 12.7204C87.0041 12.4024 86.6861 12.0844 86.368 11.8724C86.049 11.6604 85.626 11.5544 85.202 11.4494C84.778 11.3424 84.248 11.3424 83.718 11.3424C82.5519 11.3424 81.7039 11.5544 81.0679 12.0844C80.4319 12.6144 80.0079 13.4624 79.9018 14.5225H74.0717C74.0717 13.2504 74.4957 12.0844 75.0257 11.2364ZM86.579 19.5046C86.2621 19.6106 85.838 19.7166 85.413 19.8226C84.989 19.9297 84.5649 19.9297 84.0349 20.0346C83.612 20.1406 83.0819 20.1406 82.6569 20.2466L81.3848 20.5646C80.9608 20.6706 80.5368 20.8827 80.3248 21.0947C80.0068 21.3067 79.7948 21.6247 79.5828 21.9427C79.2658 22.3667 79.2658 22.7907 79.2658 23.3207C79.2658 23.8507 79.3718 24.2748 79.5838 24.5928C79.7959 24.9108 80.0079 25.2299 80.3259 25.4408C80.6439 25.6528 81.0679 25.7599 81.4919 25.8648C81.9159 25.9698 82.3389 25.9708 82.8689 25.9708C84.036 25.9708 84.8829 25.7599 85.519 25.4408C86.1561 25.0178 86.579 24.5928 86.8981 24.0628C87.2161 23.5327 87.4281 23.0027 87.4281 22.4727C87.5341 21.9427 87.5341 21.5197 87.5341 21.2007V18.9746C87.2161 19.1866 86.8981 19.3997 86.579 19.5046ZM102.164 8.05625V11.0243H102.27C103.011 9.75231 103.966 8.90428 105.131 8.37426C106.298 7.84425 107.57 7.52624 108.735 7.52624C110.325 7.52624 111.597 7.73824 112.551 8.16226C113.611 8.58627 114.354 9.22229 114.884 9.96431C115.414 10.7063 115.837 11.6604 116.155 12.7204C116.367 13.7804 116.474 14.9475 116.474 16.3245V29.3629H110.644V17.3845C110.644 15.5825 110.325 14.3104 109.795 13.4624C109.265 12.6144 108.311 12.0844 106.827 12.0844C105.237 12.0844 104.07 12.7204 103.329 13.6744C102.587 14.6285 102.269 16.2185 102.269 18.3386V29.4689H96.4384V8.05625H102.164ZM129.51 11.8724C128.557 11.8724 127.814 12.0844 127.179 12.5095C126.543 12.9324 126.013 13.4624 125.589 14.2055C125.165 14.8415 124.953 15.5835 124.74 16.4316C124.529 17.2807 124.529 18.0216 124.529 18.8707C124.529 19.6117 124.635 20.4608 124.74 21.2017C124.953 22.0508 125.164 22.6858 125.589 23.3218C126.013 23.9589 126.437 24.4889 127.073 24.9118C127.709 25.3359 128.45 25.5489 129.404 25.5489C130.783 25.5489 131.843 25.1249 132.69 24.3818C133.434 23.6409 133.964 22.5808 134.07 21.2017H139.688C139.265 24.0638 138.205 26.1839 136.401 27.669C134.6 29.152 132.268 29.8951 129.404 29.8951C127.814 29.8951 126.33 29.577 125.058 29.047C123.679 28.517 122.619 27.775 121.666 26.821C120.713 25.8669 119.969 24.7009 119.439 23.4289C118.909 22.0508 118.698 20.6717 118.698 19.0817C118.698 17.3856 118.909 15.9016 119.439 14.5235C119.969 13.1455 120.606 11.8734 121.559 10.8134C122.513 9.75337 123.679 9.01134 124.952 8.37532C126.329 7.84531 127.813 7.5273 129.509 7.5273C130.782 7.5273 131.948 7.7393 133.113 8.05731C134.278 8.37532 135.339 8.90534 136.188 9.5403C137.142 10.1774 137.884 11.0243 138.414 12.0844C138.944 13.0384 139.263 14.3104 139.368 15.6885H133.643C133.435 13.1444 132.055 11.8724 129.51 11.8724ZM31.9883 2.01406H43.8607V4.87615H31.9883V2.01406ZM148.486 24.2748C149.335 25.1228 150.712 25.5468 152.302 25.5468C153.469 25.5468 154.529 25.2288 155.376 24.6988C156.225 24.0617 156.755 23.4267 156.966 22.7897H162.055C161.206 25.3337 159.935 27.1368 158.238 28.3018C156.541 29.3619 154.528 29.9989 152.09 29.9989C150.394 29.9989 148.91 29.6799 147.531 29.1499C146.226 28.6634 145.061 27.8628 144.14 26.8188C143.186 25.8648 142.444 24.6988 142.02 23.3197C141.49 21.9416 141.278 20.4586 141.278 18.7615C141.278 17.1715 141.49 15.6885 142.02 14.3094C142.53 12.9799 143.285 11.7578 144.246 10.7063C145.2 9.75231 146.366 8.90428 147.638 8.37426C149.016 7.84425 150.5 7.52624 152.09 7.52624C153.891 7.52624 155.481 7.84425 156.754 8.58627C158.131 9.32829 159.191 10.1763 160.04 11.4484C160.888 12.6144 161.524 13.9914 161.948 15.4765C162.371 16.9595 162.478 18.5495 162.371 20.2466H147.001C147.001 21.8367 147.638 23.4267 148.486 24.2748ZM155.27 13.1444C154.528 12.4024 153.361 11.9784 151.984 11.9784C151.03 11.9784 150.287 12.1893 149.651 12.5084C149.015 12.8264 148.485 13.2494 148.168 13.6744C147.851 14.0995 147.531 14.6285 147.426 15.1585C147.321 15.6885 147.215 16.1114 147.215 16.5365H156.755C156.436 14.9465 155.906 13.8864 155.27 13.1444Z" fill="white" fill-opacity="0.5"/>
</svg>
