<svg width="50" height="44" viewBox="0 0 50 44" fill="none" xmlns="http://www.w3.org/2000/svg">
<path d="M47.7148 21.4336L38.2812 17.8984V7.30273C38.2812 5.83789 37.373 4.5293 35.9961 4.01172L26.2305 0.349609C25.4395 0.046875 24.5605 0.046875 23.7598 0.349609L13.9941 4.01172C12.6172 4.5293 11.709 5.83789 11.709 7.30273V17.8984L2.27539 21.4336C0.908203 21.9512 0 23.2598 0 24.7246V35.4766C0 36.8047 0.751953 38.0254 1.94336 38.6211L11.709 43.5039C12.6953 44.0019 13.8672 44.0019 14.8535 43.5039L25 38.4258L35.1465 43.5039C36.1328 44.0019 37.3047 44.0019 38.291 43.5039L48.0566 38.6211C49.248 38.0254 50 36.8047 50 35.4766V24.7246C50 23.2598 49.0918 21.9512 47.7148 21.4336ZM34.9609 17.9766L26.6602 21.0918V14.4316L34.9609 10.8184V17.9766ZM15.0391 7.16602L25 3.43555L34.9609 7.16602V7.22461L25 11.2676L15.0391 7.22461V7.16602ZM23.2422 35.5937L14.9414 39.7441V32.0195L23.2422 28.2305V35.5937ZM23.2422 24.6562L13.2812 28.6992L3.32031 24.6562V24.5977L13.2812 20.8672L23.2422 24.5977V24.6562ZM46.6797 35.5937L38.3789 39.7441V32.0195L46.6797 28.2305V35.5937ZM46.6797 24.6562L36.7188 28.6992L26.7578 24.6562V24.5977L36.7188 20.8672L46.6797 24.5977V24.6562Z" fill="white"/>
</svg>
