<svg width="122" height="30" viewBox="0 0 122 30" fill="none" xmlns="http://www.w3.org/2000/svg">
<path d="M37.2695 11.9814C38.6647 11.9814 39.7957 10.85 39.7957 9.45451C39.7957 8.0588 38.6647 6.92761 37.2695 6.92761C35.8742 6.92761 34.7433 8.0588 34.7433 9.45451C34.7433 10.85 35.8742 11.9814 37.2695 11.9814ZM120.641 20.615C120.257 20.3447 119.96 20.3 119.714 20.8247C115.471 30.0143 108.321 25.4286 109.031 25.8321C110.617 25.1067 114.788 21.7614 114.158 17.1424C113.775 14.3195 111.352 13.0674 108.78 13.5157C104.291 14.2983 102.64 19.1402 103.481 23.4269C103.628 24.1631 103.891 24.7702 104.153 25.365C99.0804 29.4902 97.0659 21.6721 96.8373 20.7378C96.8283 20.6878 100.754 17.4155 101.846 9.61761C102.991 1.44499 100.384 -0.043108 97.7176 0.00332053C92.7842 0.0892729 91.4511 10.3967 93.2421 18.9871C93.0921 19.0262 92.394 19.4128 91.2723 19.4562C90.4652 16.9164 87.0164 14.6902 86.1138 15.5481C83.8547 17.694 86.6616 21.8895 88.6366 22.2186C87.4502 29.5259 80.0304 27.7162 81.4116 18.5612C83.8278 14.0743 85.6654 7.40261 85.3376 3.37499C85.2214 1.94903 84.1671 0.0385586 81.7828 0.133321C77.1969 0.314749 76.6983 10.625 77.2359 17.9426C77.2092 17.7624 76.954 18.8317 75.0747 19.3633C74.6302 16.8959 70.6573 14.4193 69.7221 15.61C67.9714 17.8386 71.0054 21.8121 72.4426 22.0893C71.2561 29.3964 63.8366 27.5867 65.2178 18.4317C67.634 13.945 69.4714 7.27332 69.1435 3.2457C69.0273 1.81951 67.9733 -0.0909652 65.5888 0.00355862C61.0028 0.185225 60.5042 10.4955 61.0419 17.8131C61.015 17.63 60.7538 18.7345 58.7978 19.2574C58.7323 16.0562 54.745 14.5883 53.7871 15.6097C52.08 17.4305 54.178 21.1662 56.119 22.0893C54.9326 29.3964 47.513 27.5867 48.8942 18.4317C51.3104 13.945 53.148 7.27332 52.82 3.2457C52.704 1.81951 51.6497 -0.0909652 49.2652 0.00355862C44.6795 0.185225 44.3104 11.0138 44.848 18.3312C43.3376 24.8028 38.2721 32.8848 38.9302 16.695C38.9952 15.5593 39.0661 15.1281 38.5 14.7028C38.0757 14.3724 37.1109 14.5314 36.5835 14.5445C35.9426 14.5702 35.7819 14.9452 35.6402 15.5121C35.3102 16.9759 35.2509 18.395 35.2038 20.3312C35.1728 21.2369 35.1002 21.6595 34.7514 22.8945C34.403 24.1293 32.4157 26.3862 31.3276 26.0088C29.818 25.4897 30.3133 21.2283 30.5961 18.3005C30.8319 15.9867 30.0771 14.9476 28.1433 14.5697C27.0111 14.3338 26.3233 14.37 25.1442 13.9983C24.0292 13.6469 23.7771 11.5378 21.399 12.2407C20.0983 12.6255 20.9345 15.3814 20.6219 17.424C19.085 27.4719 15.8871 27.7478 14.4035 22.8669C21.0852 6.50237 16.3364 0.0509396 13.5566 0.0509396C10.6614 0.0509396 7.35186 2.04523 8.75329 14.8052C8.07186 14.6064 7.86233 14.4993 7.11638 14.4993C2.89757 14.4993 0.0232849 17.9097 0.0232849 22.1169C0.0232849 26.324 2.89781 29.7347 7.11662 29.7347C9.60709 29.7347 11.3557 28.6021 12.68 26.85C13.544 28.0874 14.5961 29.7538 16.5202 29.6788C22.2552 29.4555 23.923 17.6914 24.12 17.0352C24.733 17.1297 25.313 17.3086 25.8792 17.4031C26.8226 17.5448 26.8911 17.9181 26.8697 18.8669C26.6197 26.8678 28.0961 29.6693 31.4452 29.6693C33.3111 29.6693 34.9742 27.8359 36.12 26.525C36.9757 28.2912 38.3392 29.6152 40.1685 29.669C44.6011 29.7793 46.2983 22.7143 46.1435 23.644C46.0221 24.3736 47.5816 29.6293 52.145 29.6483C57.7976 29.6721 58.8483 23.4559 58.9735 22.4147C58.9892 22.2076 58.9961 22.229 58.9735 22.4147L58.9692 22.4778C60.7638 22.144 61.6897 21.1819 61.6897 21.1819C61.6897 21.1819 63.1307 29.745 68.4683 29.6486C74.0111 29.5481 75.0564 23.929 75.1935 22.8333C75.2116 22.5733 75.2223 22.6038 75.1935 22.8333C75.1928 22.844 75.1921 22.8547 75.1914 22.8655C77.323 22.09 77.8838 21.3117 77.8838 21.3117C77.8838 21.3117 79.029 29.7045 84.6623 29.7778C89.6823 29.8436 91.5428 24.7028 91.5538 22.5512C92.4004 22.5602 93.9666 22.0488 93.9299 22.0197C93.9299 22.0197 95.7688 29.3578 100.904 29.7347C103.315 29.9117 105.123 28.3781 106.154 27.6786C108.577 29.6407 116.645 32.1469 121.739 23.51C122.458 22.2705 120.912 20.8062 120.641 20.615ZM6.91305 26.8857C4.45162 26.8857 2.87329 24.6097 2.87329 22.1557C2.87329 19.7019 4.32209 17.4259 6.78352 17.4259C7.89114 17.4259 8.50733 17.5478 9.36995 18.2981C9.52638 18.9145 9.96971 20.3364 10.1854 20.9821C10.4745 21.8462 10.8183 22.5817 11.165 23.3821C10.6697 25.4352 9.04614 26.8857 6.91305 26.8857ZM12.9111 18.3702C12.8088 18.2071 12.8302 18.3074 12.7157 18.1533C12.2645 16.9259 11.395 14.1864 11.2942 11.0747C11.1804 7.55475 11.7671 3.4288 13.4966 3.4288C14.6685 3.4288 15.914 11.7907 12.9109 18.3702H12.9111ZM47.5685 14.7026C47.2909 12.6138 47.2764 3.30189 49.5119 3.55832C50.7461 4.05832 48.7292 12.8452 47.5685 14.7026ZM63.8921 14.7026C63.6145 12.6138 63.6 3.30189 65.8354 3.55832C67.0697 4.05832 65.0528 12.8452 63.8921 14.7026ZM80.0861 14.8324C79.8083 12.7433 79.794 3.43142 82.0292 3.68784C83.2635 4.18784 81.2466 12.975 80.0861 14.8324ZM97.9642 3.01332C100.008 2.80142 99.9238 11.7267 95.8214 17.3614C95.2923 15.3247 94.4811 3.71261 97.9642 3.01308V3.01332ZM106.555 22.2186C105.898 18.9026 107.594 16.7247 109.343 16.4859C109.954 16.3883 110.84 16.7843 111.017 17.5245C111.307 18.9195 110.974 20.9888 107.061 23.6143C107.067 23.6367 106.701 22.9571 106.555 22.2186H106.555Z" fill="white" fill-opacity="0.5"/>
</svg>
