<svg width="25" height="25" viewBox="0 0 25 25" fill="none" xmlns="http://www.w3.org/2000/svg">
<path d="M12.5 0.390625C5.82285 0.390625 0.390625 5.82285 0.390625 12.5C0.390625 19.1771 5.82285 24.6094 12.5 24.6094C19.1771 24.6094 24.6094 19.1771 24.6094 12.5C24.6094 5.82285 19.1771 0.390625 12.5 0.390625ZM20.5063 5.9749C21.9469 7.73496 22.8193 9.97671 22.842 12.418C22.501 12.3459 19.0814 11.6523 15.6398 12.0851C15.3589 11.3995 15.0938 10.7964 14.7308 10.0532C18.555 8.4918 20.2883 6.26987 20.5063 5.9749ZM19.3565 4.77881C19.1705 5.0438 17.6135 7.13652 13.9355 8.51509C12.2406 5.40103 10.3621 2.84282 10.0762 2.46001C13.3562 1.66934 16.8128 2.52202 19.3565 4.77881ZM8.10259 3.15527C8.37529 3.52925 10.2236 6.09062 11.9374 9.13716C7.09917 10.422 2.83779 10.4035 2.3752 10.3974C3.0459 7.18774 5.20889 4.52017 8.10259 3.15527ZM2.15674 12.5158C2.15674 12.41 2.15884 12.3047 2.16201 12.1997C2.61455 12.209 7.62686 12.2736 12.7922 10.7277C13.0883 11.3072 13.3711 11.8955 13.6308 12.4831C9.89058 13.5365 6.49238 16.5615 4.81577 19.4316C3.16377 17.5979 2.15674 15.1724 2.15674 12.5158ZM6.15122 20.6756C7.23164 18.4669 10.1638 15.6159 14.3338 14.1934C15.7859 17.9669 16.3865 21.1295 16.5403 22.037C13.2145 23.4537 9.21533 23.065 6.15122 20.6756ZM18.2792 21.0901C18.1731 20.4609 17.6226 17.433 16.2698 13.7154C19.511 13.1966 22.3586 14.0459 22.7125 14.1576C22.2515 17.0355 20.5996 19.521 18.2792 21.0901Z" fill="white"/>
</svg>
