<svg width="23" height="22" viewBox="0 0 23 22" fill="none" xmlns="http://www.w3.org/2000/svg">
<path d="M5.45898 21.875H0.923828V7.27051H5.45898V21.875ZM3.18896 5.27832C1.73877 5.27832 0.5625 4.07715 0.5625 2.62695C0.5625 1.93037 0.839216 1.26232 1.33177 0.769762C1.82433 0.277204 2.49238 0.000488281 3.18896 0.000488281C3.88555 0.000488281 4.5536 0.277204 5.04616 0.769762C5.53871 1.26232 5.81543 1.93037 5.81543 2.62695C5.81543 4.07715 4.63867 5.27832 3.18896 5.27832ZM22.4326 21.875H17.9072V14.7656C17.9072 13.0713 17.873 10.8984 15.5493 10.8984C13.1914 10.8984 12.8301 12.7393 12.8301 14.6436V21.875H8.29981V7.27051H12.6494V9.2627H12.7129C13.3184 8.11523 14.7974 6.9043 17.0039 6.9043C21.5938 6.9043 22.4375 9.92676 22.4375 13.8525V21.875H22.4326Z" fill="white"/>
</svg>
