<svg width="124" height="30" viewBox="0 0 124 30" fill="none" xmlns="http://www.w3.org/2000/svg">
<path d="M121.75 25.9059C121.213 25.9111 120.701 26.1284 120.324 26.5105C119.948 26.8925 119.738 27.4081 119.74 27.9445C119.743 28.4809 119.958 28.9944 120.338 29.3728C120.718 29.7512 121.233 29.9636 121.769 29.9636C122.306 29.9636 122.82 29.7512 123.201 29.3728C123.581 28.9944 123.796 28.4809 123.798 27.9445C123.801 27.4081 123.591 26.8925 123.214 26.5105C122.838 26.1284 122.325 25.9111 121.789 25.9059H121.75ZM121.75 29.7314C121.398 29.7372 121.052 29.6386 120.757 29.448C120.461 29.2574 120.228 28.9834 120.088 28.6606C119.948 28.3378 119.907 27.9807 119.97 27.6345C120.033 27.2883 120.197 26.9686 120.441 26.7156C120.686 26.4627 121 26.288 121.344 26.2137C121.688 26.1393 122.046 26.1685 122.374 26.2978C122.701 26.427 122.982 26.6504 123.183 26.9396C123.383 27.2289 123.493 27.5711 123.499 27.9229V27.9527C123.509 28.4143 123.335 28.8608 123.016 29.1942C122.696 29.5275 122.258 29.7204 121.796 29.7304H121.75L121.75 29.7314ZM113.962 25.3516H109.553V18.4475C109.553 16.8011 109.524 14.6818 107.26 14.6818C104.964 14.6818 104.613 16.4755 104.613 18.3276V25.3512H100.204V11.1535H104.436V13.0937H104.495C104.919 12.3695 105.531 11.7738 106.266 11.3699C107.002 10.966 107.833 10.7692 108.671 10.8003C113.14 10.8003 113.964 13.7394 113.964 17.563L113.962 25.3516ZM95.2295 9.21272C94.7235 9.21282 94.2288 9.06286 93.808 8.78181C93.3872 8.50077 93.0593 8.10126 92.8655 7.63381C92.6718 7.16636 92.6211 6.65196 92.7197 6.15566C92.8183 5.65936 93.0619 5.20345 93.4196 4.84559C93.7774 4.48773 94.2332 4.24398 94.7294 4.14517C95.2257 4.04637 95.7401 4.09694 96.2076 4.2905C96.6752 4.48405 97.0748 4.8119 97.356 5.23257C97.6372 5.65325 97.7873 6.14786 97.7874 6.65387C97.7875 6.98984 97.7214 7.32254 97.5928 7.63296C97.4643 7.94338 97.2759 8.22545 97.0384 8.46306C96.8009 8.70067 96.5189 8.88918 96.2085 9.0178C95.8981 9.14643 95.5655 9.21266 95.2295 9.21272ZM97.4338 25.3516H93.0206V11.1535H97.4338V25.3516ZM116.16 0.00184329H90.8052C90.2297 -0.00465092 89.6752 0.21759 89.2635 0.619729C88.8518 1.02187 88.6166 1.57101 88.6096 2.14647V27.606C88.6164 28.1818 88.8514 28.7313 89.2631 29.1338C89.6748 29.5364 90.2294 29.7591 90.8052 29.7529H116.16C116.736 29.7602 117.293 29.5381 117.706 29.1356C118.119 28.733 118.356 28.1829 118.364 27.606V2.14463C118.356 1.56803 118.119 1.01827 117.706 0.616137C117.292 0.214008 116.736 -0.00759841 116.16 6.35056e-06V0.00184329ZM76.6102 14.5803C74.4059 14.5803 73.0833 16.0521 73.0833 18.1967C73.0833 20.3414 74.4054 21.8146 76.6102 21.8146C78.815 21.8146 80.1404 20.345 80.1404 18.1967C80.1404 16.0484 78.8173 14.5803 76.6102 14.5803ZM84.1991 25.3434H80.1404V23.4605H80.0802C79.571 24.1454 78.9106 24.7034 78.1504 25.0912C77.3901 25.4789 76.5506 25.6859 75.6973 25.6961C71.4613 25.6961 68.671 22.6389 68.671 18.3157C68.671 14.3451 71.1403 10.6993 75.1995 10.6993C77.024 10.6993 78.7282 11.1985 79.728 12.5821H79.7859V4.3981H84.1986L84.1991 25.3434ZM63.0104 16.5958C63.0189 16.2382 62.9546 15.8825 62.8216 15.5504C62.6885 15.2183 62.4894 14.9167 62.2363 14.6638C61.9833 14.4109 61.6815 14.212 61.3493 14.0791C61.0171 13.9463 60.6614 13.8823 60.3037 13.891C59.5334 13.843 58.7751 14.0997 58.1923 14.6057C57.6095 15.1117 57.2489 15.8264 57.1883 16.5958H63.0104ZM66.7449 22.8874C66.0124 23.7758 65.0913 24.4901 64.0486 24.9787C63.0059 25.4672 61.8676 25.7177 60.7161 25.7121C56.3074 25.7121 52.7778 22.7694 52.7778 18.2124C52.7778 13.6554 56.307 10.714 60.7161 10.714C64.8368 10.714 67.4209 13.6531 67.4209 18.2124V19.5947H57.1883C57.3157 20.3786 57.7221 21.0901 58.3327 21.598C58.9432 22.106 59.7168 22.3762 60.5108 22.3588C61.1383 22.3549 61.7549 22.1941 62.3044 21.8911C62.8539 21.5881 63.3189 21.1524 63.6571 20.6238L66.7449 22.8874ZM22.9183 11.1498H27.152V13.09H27.2121C27.635 12.3656 28.2467 11.7695 28.982 11.3656C29.7172 10.9617 30.5483 10.765 31.3866 10.7966C35.8572 10.7966 36.6802 13.738 36.6802 17.5593V25.3452H32.2715V18.4424C32.2715 16.7947 32.2412 14.6767 29.9754 14.6767C27.6838 14.6767 27.3302 16.4709 27.3302 18.3226V25.3434H22.9215L22.9183 11.1498ZM38.9158 4.39948H43.3244V16.9205L48.3209 11.142H53.7261L47.9397 17.715L53.6044 25.3521H48.0633L43.3832 18.3341H43.3253V25.3512H38.9167L38.9158 4.39948ZM16.0651 11.1484H20.4738V25.3461H16.0651V11.1484ZM18.2695 4.08996C18.7753 4.09005 19.2697 4.24012 19.6902 4.52119C20.1107 4.80227 20.4384 5.20172 20.6319 5.66905C20.8254 6.13638 20.876 6.65059 20.7773 7.14666C20.6785 7.64273 20.4349 8.09839 20.0772 8.45601C19.7196 8.81363 19.2639 9.05717 18.7678 9.15581C18.2717 9.25445 17.7575 9.20378 17.2902 9.0102C16.8229 8.81661 16.4235 8.48881 16.1425 8.06825C15.8615 7.64768 15.7115 7.15324 15.7115 6.64744C15.7115 6.31154 15.7777 5.97894 15.9062 5.66862C16.0348 5.35831 16.2232 5.07635 16.4607 4.83886C16.6983 4.60137 16.9803 4.413 17.2906 4.2845C17.6009 4.156 17.9336 4.0899 18.2695 4.08996ZM0.951233 4.40269H5.54037V21.1189H14.0362V25.3539H0.951233V4.40269ZM122.072 28.0634C122.147 28.0642 122.222 28.0494 122.292 28.02C122.361 27.9906 122.424 27.9473 122.476 27.8927C122.528 27.838 122.569 27.7732 122.595 27.7024C122.621 27.6315 122.632 27.556 122.627 27.4806C122.627 27.0673 122.378 26.8699 121.866 26.8699H121.04V29.0338H121.351V28.0905H121.733L121.742 28.102L122.334 29.0338H122.667L122.029 28.0694L122.072 28.0634ZM121.712 27.8467H121.352V27.1151H121.809C122.045 27.1151 122.314 27.1537 122.314 27.4627C122.314 27.8182 122.041 27.8467 121.71 27.8467" fill="white" fill-opacity="0.5"/>
</svg>
