<svg width="25" height="19" viewBox="0 0 25 19" fill="none" xmlns="http://www.w3.org/2000/svg">
<path d="M3.49121 3.94824C3.52051 3.66016 3.4082 3.37207 3.19336 3.17676L0.991211 0.520508V0.125H7.83691L13.1299 11.7314L17.7832 0.125H24.3115V0.520508L22.4268 2.32715C22.2656 2.44922 22.1826 2.6543 22.2168 2.85449V16.1357C22.1826 16.3359 22.2656 16.541 22.4268 16.6631L24.2676 18.4697V18.8652H15.0049V18.4697L16.9141 16.6191C17.0996 16.4336 17.0996 16.375 17.0996 16.0918V5.35938L11.792 18.8311H11.0742L4.90234 5.35938V14.3877C4.84863 14.7686 4.97559 15.1494 5.24414 15.4229L7.72461 18.4307V18.8262H0.693359V18.4355L3.17383 15.4229C3.4375 15.1494 3.55957 14.7637 3.49121 14.3877V3.94824Z" fill="white"/>
</svg>
