<svg width="25" height="23" viewBox="0 0 25 23" fill="none" xmlns="http://www.w3.org/2000/svg">
<path d="M6.94444 19.8331C5.83333 19.8331 4.72222 18.8609 4.16667 18.4442C1.38889 16.4998 0.555556 15.8053 0 15.3887V21.222C0 21.9889 0.621962 22.6109 1.38889 22.6109H12.5C13.2669 22.6109 13.8889 21.9889 13.8889 21.222V15.3887C13.3333 15.8053 12.5 16.4998 9.72222 18.4442C9.16667 18.8609 8.05556 19.8331 6.94444 19.8331ZM12.5 11.4998H1.38889C0.621962 11.4998 0 12.1217 0 12.8887V13.5831C1.11111 14.4164 0.972222 14.4164 5 17.3331C5.41667 17.6109 6.25 18.4442 6.94444 18.4442C7.63889 18.4442 8.47222 17.6109 8.88889 17.472C12.9167 14.5553 12.7778 14.5553 13.8889 13.722V12.8887C13.8889 12.1217 13.2669 11.4998 12.5 11.4998ZM23.6111 7.33312H9.72222C8.95529 7.33312 8.33333 7.95508 8.33333 8.722V10.1109H12.5C13.9414 10.1109 15.1298 11.2142 15.2652 12.6204L15.2778 12.6109V18.4442H23.6111C24.378 18.4442 25 17.8223 25 17.0553V8.722C25 7.95508 24.378 7.33312 23.6111 7.33312ZM22.2222 12.8887H19.4444V10.1109H22.2222V12.8887ZM6.94444 8.722C6.94444 7.19032 8.19054 5.94423 9.72222 5.94423H19.4444V1.77756C19.4444 1.01063 18.8225 0.388672 18.0556 0.388672H4.16667C3.39974 0.388672 2.77778 1.01063 2.77778 1.77756V10.1109H6.94444V8.722Z" fill="white"/>
</svg>
