<svg width="44" height="50" viewBox="0 0 44 50" fill="none" xmlns="http://www.w3.org/2000/svg">
<path d="M34.5 31.25C32.2922 31.25 30.263 32.0136 28.6611 33.2905L18.6527 27.0353C18.9491 25.6946 18.9491 24.3053 18.6527 22.9646L28.6611 16.7094C30.263 17.9864 32.2922 18.75 34.5 18.75C39.6776 18.75 43.875 14.5526 43.875 9.375C43.875 4.19736 39.6776 0 34.5 0C29.3224 0 25.125 4.19736 25.125 9.375C25.125 10.074 25.2021 10.7549 25.3473 11.4103L15.3389 17.6655C13.737 16.3886 11.7078 15.625 9.5 15.625C4.32236 15.625 0.125 19.8224 0.125 25C0.125 30.1776 4.32236 34.375 9.5 34.375C11.7078 34.375 13.737 33.6114 15.3389 32.3345L25.3473 38.5897C25.1993 39.2581 25.1248 39.9405 25.125 40.625C25.125 45.8026 29.3224 50 34.5 50C39.6776 50 43.875 45.8026 43.875 40.625C43.875 35.4474 39.6776 31.25 34.5 31.25Z" fill="white"/>
</svg>
