<svg width="153" height="30" viewBox="0 0 153 30" fill="none" xmlns="http://www.w3.org/2000/svg">
<path d="M77.5699 26.6515C77.5699 27.1795 77.5699 27.2995 77.9259 27.6235L79.9197 29.5915V29.6755H71.0784V25.8955C70.1885 28.3868 67.8351 30.0342 65.2158 29.9995C60.6705 29.9995 57.3713 26.3995 57.3713 19.7756C57.3713 13.5718 60.9316 9.43183 65.9278 9.43183C68.1425 9.29086 70.2034 10.5806 71.0665 12.6478V4.30792C71.1322 3.92172 70.9758 3.53122 70.663 3.29994L68.7642 1.45197V1.36798L77.5699 0.323994V26.6515ZM71.0784 25.4515V13.0078C70.4376 12.203 69.4653 11.7425 68.4437 11.7598C66.2957 11.7598 64.2189 13.7278 64.2189 19.5716C64.2189 25.0435 66.0109 26.9755 68.242 26.9755C69.3732 26.9521 70.4261 26.3864 71.0784 25.4515ZM83.4325 29.6755V12.8758C83.4891 12.5006 83.3553 12.1218 83.0765 11.8678L81.1183 9.82782V9.74382H89.9597V26.7835C89.9597 27.3115 89.9597 27.4315 90.3157 27.7555L92.262 29.6035V29.6875L83.4325 29.6755ZM83.1121 3.59994C83.1121 1.61175 84.7061 0 86.6724 0C88.6386 0 90.2326 1.61175 90.2326 3.59994C90.2326 5.58812 88.6386 7.19987 86.6724 7.19987C84.7061 7.19987 83.1121 5.58812 83.1121 3.59994ZM113.814 26.6155C113.814 27.1435 113.814 27.2995 114.17 27.6235L116.163 29.5915V29.6755H107.274V25.3675C106.465 28.0914 103.999 29.9676 101.186 29.9995C97.2464 29.9995 95.1339 27.0955 95.1339 21.5996C95.1339 18.9477 95.1339 16.0437 95.217 12.7798C95.2821 12.4144 95.1458 12.0421 94.861 11.8078L92.9028 9.82782V9.74382H101.673C101.673 9.86382 101.673 20.1716 101.673 20.6996C101.673 24.2996 102.195 26.6995 104.426 26.6995C105.624 26.6238 106.704 25.9425 107.298 24.8876V12.8878C107.355 12.5126 107.221 12.1338 106.942 11.8798L104.972 9.82782V9.74382H113.814V26.6155ZM143.91 29.6755C143.91 29.0275 144.028 20.7716 144.028 18.8757C144.028 15.2757 143.471 12.7918 140.967 12.7918C139.707 12.8311 138.54 13.4722 137.822 14.5197C138.073 15.6416 138.192 16.7895 138.178 17.9397C138.178 20.4356 138.095 23.6156 138.059 26.7955C137.994 27.1609 138.13 27.5332 138.415 27.7675L140.409 29.6155V29.6995H131.484C131.484 29.0995 131.603 20.7956 131.603 18.8997C131.603 15.2397 131.045 12.8158 128.577 12.8158C127.36 12.8599 126.25 13.5298 125.634 14.5917V26.8315C125.634 27.3595 125.634 27.4795 125.99 27.8035L127.936 29.6515V29.7355H119.106V12.9358C119.163 12.5606 119.029 12.1818 118.75 11.9278L116.792 9.82782V9.74382H125.634V14.0157C126.453 11.1953 129.066 9.30056 131.971 9.41983C134.914 9.41983 136.908 11.0758 137.75 14.2197C138.686 11.3202 141.38 9.37452 144.396 9.41983C148.336 9.41983 150.567 12.3598 150.567 17.9157C150.567 20.5676 150.484 23.5916 150.449 26.7715C150.38 27.1479 150.538 27.5298 150.852 27.7435L152.799 29.5915V29.6755H143.91ZM32.841 27.0595L35.4637 29.5915V29.6755H22.1602V29.5915L24.8304 27.0595C25.1152 26.8252 25.2515 26.4529 25.1864 26.0875V9.89982C25.1864 9.21583 25.1864 8.29185 25.3051 7.49987L16.3332 29.9995H16.2264L6.93406 9.29983C6.73231 8.78384 6.67298 8.74784 6.54243 8.39985V21.9716C6.43118 22.8799 6.58375 23.8014 6.98153 24.6236L10.7198 29.5915V29.6755H0.798523V29.5915L4.53681 24.6116C4.93165 23.7927 5.08413 22.876 4.97591 21.9716V6.97187C5.0367 6.23332 4.81592 5.49922 4.3588 4.91991L1.71233 1.45197V1.36798H11.2064L19.1577 18.8997L26.1595 1.36798H35.4519V1.45197L32.841 4.39192C32.5281 4.6232 32.3718 5.0137 32.4375 5.3999V26.0875C32.3683 26.4639 32.5269 26.8458 32.841 27.0595ZM43.2489 18.9477V19.0317C43.2489 24.1676 45.8716 26.2315 48.9453 26.2315C51.5119 26.3201 53.8872 24.8649 54.9978 22.5236H55.0808C54.0128 27.5995 50.9035 29.9995 46.2514 29.9995C41.2314 29.9995 36.4962 26.9395 36.4962 19.8476C36.4962 12.3958 41.2432 9.41983 46.4887 9.41983C50.7136 9.41983 55.2114 11.4358 55.2114 17.9157C55.2114 18.0357 55.2114 18.4677 55.2114 18.9477H43.2489ZM43.2489 17.9157H49.0996C49.0996 17.3877 49.0996 17.0277 49.0996 16.8717C49.0996 11.5918 48.0196 10.1878 46.3938 10.1878C44.4238 10.1878 43.2251 12.2878 43.2251 17.9157H43.2489Z" fill="white" fill-opacity="0.5"/>
</svg>
