<svg width="50" height="40" viewBox="0 0 50 40" fill="none" xmlns="http://www.w3.org/2000/svg">
<path d="M10 7.5C12.0703 7.5 13.75 5.82031 13.75 3.75C13.75 1.67969 12.0703 0 10 0C7.9297 0 6.25001 1.67969 6.25001 3.75C6.25001 5.82031 7.9297 7.5 10 7.5ZM40 7.5C42.0703 7.5 43.75 5.82031 43.75 3.75C43.75 1.67969 42.0703 0 40 0C37.9297 0 36.25 1.67969 36.25 3.75C36.25 5.82031 37.9297 7.5 40 7.5ZM49.8203 36.5703L46.3828 27.9766L43.1719 31.6016L43.0156 33.0234L45.1797 38.4297C45.5703 39.4062 46.5078 40 47.5 40C47.8125 40 48.125 39.9453 48.4297 39.8203C49.711 39.3047 50.336 37.8516 49.8203 36.5703ZM47.1484 20.1797L45.7031 13.9141C45.3438 12.3516 44.25 11.0391 42.7734 10.4062C41.3281 9.78125 39.7266 9.88281 38.3906 10.6641C36.6172 11.7109 35.2891 13.3594 34.6328 15.3047L33.75 17.9531L32.5 18.75V11.25C32.5 10.5625 31.9375 10 31.25 10H18.75C18.0625 10 17.5 10.5625 17.5 11.25V18.75L16.2422 17.9531L15.3594 15.3047C14.7109 13.3516 13.375 11.7109 11.6016 10.6641C10.2578 9.88281 8.66407 9.78125 7.21876 10.4062C5.7422 11.0391 4.64845 12.3516 4.28907 13.9141L2.85157 20.1797C2.4922 21.7422 2.90626 23.3984 3.97657 24.6094L9.22657 30.5391L10.0156 37.7734C10.1563 39.0469 11.2344 40 12.5 40C12.5938 40 12.6797 39.9922 12.7734 39.9844C14.1484 39.8359 15.1328 38.6016 14.9844 37.2266L14.1953 29.9766C14.0781 28.9609 13.6563 28.0156 12.9766 27.2422L9.59376 23.4141L10.9688 17.9219L11.5 19.5156C11.8203 20.4922 12.4297 21.3438 13.4141 22.0625L17.4063 24.6016C17.7656 24.8281 18.3516 24.9609 18.75 24.9922H31.25C31.6485 24.9609 32.2344 24.8281 32.5938 24.6016L36.586 22.0625C37.5703 21.3438 38.1797 20.5 38.5 19.5156L39.0313 17.9219L40.4063 23.4141L37.0235 27.2422C36.3438 28.0156 35.9219 28.9609 35.8047 29.9766L35.0156 37.2266C34.8672 38.6016 35.8594 39.8359 37.2266 39.9844C37.3203 39.9922 37.4063 40 37.5 40C38.7578 40 39.8438 39.0547 39.9844 37.7734L40.7735 30.5391L46.0234 24.6094C47.0859 23.3984 47.5078 21.7422 47.1484 20.1797ZM3.6172 27.9766L0.179698 36.5703C-0.335927 37.8516 0.289073 39.3047 1.57032 39.8203C2.88282 40.3359 4.31251 39.6875 4.82032 38.4297L6.98439 33.0234L6.82814 31.6016L3.6172 27.9766Z" fill="white"/>
</svg>
