<svg width="50" height="44" viewBox="0 0 50 44" fill="none" xmlns="http://www.w3.org/2000/svg">
<path d="M50 11.0625V39.1875C50 41.7754 47.9004 43.875 45.3125 43.875H4.6875C2.09961 43.875 0 41.7754 0 39.1875V11.0625C0 8.47461 2.09961 6.375 4.6875 6.375H13.2812L14.4824 3.16211C15.166 1.33594 16.9141 0.125 18.8672 0.125H31.123C33.0762 0.125 34.8242 1.33594 35.5078 3.16211L36.7188 6.375H45.3125C47.9004 6.375 50 8.47461 50 11.0625ZM36.7188 25.125C36.7188 18.6602 31.4648 13.4062 25 13.4062C18.5352 13.4062 13.2812 18.6602 13.2812 25.125C13.2812 31.5898 18.5352 36.8438 25 36.8438C31.4648 36.8438 36.7188 31.5898 36.7188 25.125ZM33.5938 25.125C33.5938 29.8613 29.7363 33.7188 25 33.7188C20.2637 33.7188 16.4062 29.8613 16.4062 25.125C16.4062 20.3887 20.2637 16.5312 25 16.5312C29.7363 16.5312 33.5938 20.3887 33.5938 25.125Z" fill="white"/>
</svg>
