<svg width="50" height="40" viewBox="0 0 50 40" fill="none" xmlns="http://www.w3.org/2000/svg">
<path d="M20.0367 16.9352L26.8125 25.4648C26.8125 25.4648 25.5156 33.4617 20.8305 37.193C16.1453 40.9258 0 39.8586 0 39.8586C0 39.8586 0.296875 38.0508 0.859375 35.5281L8.25156 26.7648C8.56172 26.3977 8.18359 25.857 7.73203 26.0227L3.01328 27.7484C4.14141 24.4938 5.56953 21.4953 7.27891 20.1336C11.9641 16.4023 20.0367 16.9352 20.0367 16.9352ZM49.7289 2.42422L48.1773 0.471096C47.7484 -0.0679667 46.9648 -0.15781 46.4266 0.271096L28.2641 14.1617L25.5969 10.8047C25.1992 10.3039 24.4141 10.3977 24.1445 10.9773L22.1656 15.2391L28.9414 23.7688L33.5352 22.7961C34.1602 22.6641 34.4273 21.9211 34.0305 21.4211L31.3672 18.068L49.5297 4.17735C50.068 3.74922 50.1578 2.96406 49.7289 2.42422Z" fill="white"/>
</svg>
